<svg width="82" height="82" viewBox="0 0 82 82" fill="none" xmlns="http://www.w3.org/2000/svg">
<rect width="82" height="82" fill="#1E1E1E"/>
<path d="M66.2253 1.17157C67.7874 -0.390524 70.3194 -0.390525 71.8815 1.17157L80.3669 9.65692C81.9289 11.219 81.929 13.7511 80.3669 15.3132L60.2507 35.4304C61.278 38.9493 61.3183 42.6949 60.3737 46.2321L80.3669 66.2253C81.929 67.7874 81.9289 70.3194 80.3669 71.8815L71.8815 80.3669C70.3194 81.929 67.7874 81.929 66.2253 80.3669L46.2321 60.3737C42.6949 61.3182 38.9493 61.277 35.4304 60.2497L15.3132 80.3669C13.7511 81.929 11.219 81.9289 9.65692 80.3669L1.17157 71.8815C-0.390524 70.3194 -0.390524 67.7874 1.17157 66.2253L21.6169 45.779C20.8291 42.5254 20.8675 39.1127 21.7321 35.8747L1.17157 15.3132C-0.390521 13.7511 -0.390517 11.219 1.17157 9.65692L9.65692 1.17157C11.219 -0.390461 13.7511 -0.390504 15.3132 1.17157L35.8747 21.7321C39.1129 20.8674 42.5262 20.829 45.78 21.6169L66.2253 1.17157ZM69.905 5.90497C67.9523 3.95235 64.7863 3.95235 62.8337 5.90497L45.3034 23.4352C42.3584 22.7222 39.2695 22.756 36.3386 23.5388L18.7048 5.90497C16.7522 3.95235 13.5861 3.95235 11.6335 5.90497L5.90497 11.6335C3.95235 13.5861 3.95235 16.7522 5.90497 18.7048L23.5388 36.3386C22.7561 39.2694 22.7222 42.3585 23.4352 45.3034L5.90497 62.8337C3.95242 64.7863 3.95237 67.9524 5.90497 69.905L11.6335 75.6335C13.5861 77.5861 16.7521 77.586 18.7048 75.6335L35.9372 58.4011C39.1223 59.3309 42.513 59.3693 45.7145 58.5143L62.8337 75.6335C64.7863 77.586 67.9524 77.5861 69.905 75.6335L75.6335 69.905C77.5861 67.9524 77.586 64.7863 75.6335 62.8337L58.5134 45.7145C59.3684 42.5129 59.331 39.1223 58.4011 35.9372L75.6335 18.7048C77.5861 16.7522 77.5861 13.5861 75.6335 11.6335L69.905 5.90497ZM30.3757 30.3757C36.2334 24.5179 45.7307 24.5181 51.5886 30.3757C57.4464 36.2335 57.4464 45.7307 51.5886 51.5886C45.7307 57.4464 36.2335 57.4464 30.3757 51.5886C24.5181 45.7307 24.5179 36.2334 30.3757 30.3757Z" fill="#D9D9D9"/>
</svg>
